<svg xmlns="http://www.w3.org/2000/svg" version="1.1" xmlns:xlink="http://www.w3.org/1999/xlink" xmlns:svgjs="http://svgjs.dev/svgjs" width="1440" height="8000" preserveAspectRatio="none" viewBox="0 0 1440 8000"><g mask="url(&quot;#SvgjsMask1392&quot;)" fill="none"><path d="M 865,-2215.817955188588 C 802,-1949.02 571,-1415.42 550,-881.8179551885876 C 529,-348.22 751.8,-81.42 760,452.1820448114124 C 768.2,985.78 584.6,1252.58 591,1786.1820448114124 C 597.4,2319.78 775.4,2586.58 792,3120.182044811412 C 808.6,3653.78 669.4,3920.58 674,4454.182044811412 C 678.6,4987.78 819.4,5254.58 815,5788.182044811412 C 810.6,6321.78 659,6679.82 652,7122.182044811412 C 645,7564.55 754.4,7824.44 780,8000" stroke="rgba(0, 123, 255, 0.5)" stroke-width="2"></path><path d="M 577,-1466.7072730061782 C 629,-1199.91 841.4,-666.31 837,-132.7072730061783 C 832.6,400.89 555,667.69 555,1201.2927269938218 C 555,1734.89 839.8,2001.69 837,2535.292726993822 C 834.2,3068.89 563.6,3335.69 541,3869.292726993822 C 518.4,4402.89 717.4,4669.69 724,5203.292726993822 C 730.6,5736.89 569.8,6003.69 574,6537.292726993822 C 578.2,7070.89 746.4,7578.75 745,7871.292726993822 C 743.6,8163.83 602.6,7974.26 567,8000" stroke="rgba(255, 87, 34, 0.5)" stroke-width="2"></path><path d="M 561,-1075.192027271125 C 606.2,-808.39 786.4,-274.79 787,258.8079727288751 C 787.6,792.41 569.4,1059.21 564,1592.807972728875 C 558.6,2126.41 759.8,2393.21 760,2926.807972728875 C 760.2,3460.41 537.8,3727.21 565,4260.807972728875 C 592.2,4794.41 878.6,5061.21 896,5594.807972728875 C 913.4,6128.41 656.4,6395.21 652,6928.807972728875 C 647.6,7462.41 890.6,8048.57 874,8262.807972728875 C 857.4,8477.05 630,8052.56 569,8000" stroke="rgba(255, 87, 34, 0.5)" stroke-width="2"></path><path d="M 727,-1225.6812835118062 C 716.4,-958.88 643.4,-425.28 674,108.31871648819383 C 704.6,641.92 893,908.72 880,1442.3187164881938 C 867,1975.92 627.6,2242.72 609,2776.318716488194 C 590.4,3309.92 785.4,3576.72 787,4110.318716488194 C 788.6,4643.92 597.8,4910.72 617,5444.318716488194 C 636.2,5977.92 881.6,6244.72 883,6778.318716488194 C 884.4,7311.92 622.2,7867.98 624,8112.318716488194 C 625.8,8356.65 838.4,8022.46 892,8000" stroke="rgba(255, 87, 34, 0.5)" stroke-width="2"></path><path d="M 824,-208.61683718272775 C 768.8,58.18 547.4,591.78 548,1125.3831628172723 C 548.6,1658.98 803.6,1925.78 827,2459.383162817272 C 850.4,2992.98 677.2,3259.78 665,3793.383162817272 C 652.8,4326.98 787.8,4593.78 766,5127.383162817272 C 744.2,5660.98 548.6,5927.78 556,6461.383162817272 C 563.4,6994.98 788.4,7261.78 803,7795.383162817272 C 817.6,8328.98 630.4,9088.46 629,9129.383162817272 C 627.6,9170.31 762.6,8225.88 796,8000" stroke="rgba(0, 123, 255, 0.5)" stroke-width="2"></path></g><defs><mask id="SvgjsMask1392"><rect width="1440" height="8000" fill="#ffffff"></rect></mask></defs></svg>