<svg xmlns="http://www.w3.org/2000/svg" version="1.1" xmlns:xlink="http://www.w3.org/1999/xlink" xmlns:svgjs="http://svgjs.dev/svgjs" width="1440" height="8000" preserveAspectRatio="none" viewBox="0 0 1440 8000"><g mask="url(&quot;#SvgjsMask1394&quot;)" fill="none"><path d="M 599,-2558.6160461656746 C 630.2,-2291.82 750.8,-1758.22 755,-1224.6160461656746 C 759.2,-691.02 615.4,-424.22 620,109.38395383432544 C 624.6,642.98 778,909.78 778,1443.3839538343254 C 778,1976.98 612.6,2243.78 620,2777.3839538343254 C 627.4,3310.98 801.2,3577.78 815,4111.383953834325 C 828.8,4644.98 675.8,4911.78 689,5445.383953834325 C 702.2,5978.98 893,6268.46 881,6779.383953834325 C 869,7290.31 679.4,7755.88 629,8000" stroke="rgba(0, 123, 255, 0.4)" stroke-width="3"></path><path d="M 759,-1201.7470002530392 C 734,-934.95 610.8,-401.35 634,132.25299974696074 C 657.2,665.85 875.8,932.65 875,1466.2529997469608 C 874.2,1999.85 630.2,2266.65 630,2800.2529997469605 C 629.8,3333.85 887.8,3600.65 874,4134.252999746961 C 860.2,4667.85 556.2,4934.65 561,5468.252999746961 C 565.8,6001.85 871.4,6268.65 898,6802.252999746961 C 924.6,7335.85 694,7896.7 694,8136.252999746961 C 694,8375.8 857.2,8027.25 898,8000" stroke="rgba(255, 87, 34, 0.4)" stroke-width="3"></path><path d="M 779,-79.06630491885767 C 746.4,187.73 617.4,721.33 616,1254.9336950811423 C 614.6,1788.53 767.6,2055.33 772,2588.933695081142 C 776.4,3122.53 646.8,3389.33 638,3922.933695081142 C 629.2,4456.53 731.8,4723.33 728,5256.933695081142 C 724.2,5790.53 604.8,6057.33 619,6590.933695081142 C 633.2,7124.53 786.2,7391.33 799,7924.933695081142 C 811.8,8458.53 694.6,9243.92 683,9258.933695081143 C 671.4,9273.95 729.4,8251.79 741,8000" stroke="rgba(0, 123, 255, 0.4)" stroke-width="3"></path></g><defs><mask id="SvgjsMask1394"><rect width="1440" height="8000" fill="#ffffff"></rect></mask></defs></svg>